<svg width="96" height="96" viewBox="0 0 96 96" fill="none" xmlns="http://www.w3.org/2000/svg">
<g clip-path="url(#clip0_109_34)">
<circle cx="48" cy="48" r="47" fill="white" stroke="black" stroke-width="2"/>
<path d="M57.1035 47.9409C57.1035 41.8706 55.8771 35.9073 53.5476 30.6503L30.5616 47.9409H57.1035Z" fill="#00C408"/>
<path d="M4.01978 47.9409C4.01978 41.8731 5.24518 35.9121 7.57292 30.6566L30.5616 47.9409L4.01978 47.9409Z" fill="#FF00F5"/>
<path d="M7.57571 30.6503C9.90429 25.3954 13.2531 21.0313 17.2858 17.9963L30.5616 47.9409L7.57571 30.6503Z" fill="#FF0000"/>
<path d="M17.2907 17.9926C21.3239 14.9587 25.8989 13.3609 30.556 13.3596L30.5616 47.9409L17.2907 17.9926Z" fill="#FF6B00"/>
<path d="M30.5616 13.3596C35.2188 13.3596 39.794 14.9562 43.8277 17.989L30.5616 47.9409L30.5616 13.3596Z" fill="#FFE600"/>
<path d="M43.8326 17.9926C47.8658 21.0265 51.2153 25.3897 53.5448 30.6439L30.5616 47.9409L43.8326 17.9926Z" fill="#96DC00"/>
<path d="M7.57571 65.2315C5.24712 59.9766 4.02075 54.016 4.01978 47.9481L30.5616 47.9409L7.57571 65.2315Z" fill="#C000A2"/>
<path d="M17.2907 77.8892C13.2575 74.8553 9.90793 70.4921 7.57849 65.2378L30.5616 47.9409L17.2907 77.8892Z" fill="#3100BB"/>
<path d="M30.5616 82.5222C25.9028 82.5222 21.326 80.9244 17.2912 77.8895L30.5616 47.9409L30.5616 82.5222Z" fill="#0015D7"/>
<path d="M43.8326 77.8892C39.7993 80.9231 35.2244 82.5209 30.5672 82.5222L30.5616 47.9409L43.8326 77.8892Z" fill="#0075FF"/>
<path d="M53.5476 65.2315C51.219 70.4864 47.8702 74.8505 43.8374 77.8855L30.5616 47.9409L53.5476 65.2315Z" fill="#00E0FF"/>
<path d="M57.1035 47.9409C57.1035 54.0087 55.8781 59.9697 53.5504 65.2253L30.5616 47.9409H57.1035Z" fill="#00DE9B"/>
<path d="M40.5 48C40.5 53.4251 38.8501 58.3174 36.2066 61.8421C33.5632 65.3667 29.9495 67.5 26 67.5C22.0505 67.5 18.4368 65.3667 15.7934 61.8421C13.1499 58.3174 11.5 53.4251 11.5 48C11.5 42.5749 13.1499 37.6826 15.7934 34.1579C18.4368 30.6333 22.0505 28.5 26 28.5C29.9495 28.5 33.5632 30.6333 36.2066 34.1579C38.8501 37.6826 40.5 42.5749 40.5 48Z" fill="black" stroke="black"/>
<path d="M29.8077 38.1568C27.6825 35.1125 26.6731 33.6121 23 31.8362C27.1923 30.7668 27.8269 30.6331 30.3654 29.4874C33.0528 28.2745 33.8452 27.1973 35.4585 25.0042L35.4615 25C35.9808 26.6995 37.1154 29.3538 38.4615 31.397C39.6446 33.1926 39.9423 33.5357 43 35.5789C40.4423 35.8462 39.1147 37.357 37.4231 38.8824C35.5385 40.5819 34.7308 41.403 32.8269 44C31.4615 41.1357 30.9808 39.8372 29.8077 38.1568Z" fill="white"/>
</g>
<defs>
<clipPath id="clip0_109_34">
<rect width="96" height="96" fill="white"/>
</clipPath>
</defs>
</svg>
